<mxfile host="app.diagrams.net" modified="2024-02-17T06:45:12.190Z" agent="Mozilla/5.0 (Macintosh; Intel Mac OS X 10_15_7) AppleWebKit/537.36 (KHTML, like Gecko) Chrome/119.0.0.0 Safari/537.36" version="23.1.5" etag="kZ_2pDzVTTGpCH_U8XEt" type="github">
  <diagram name="第 1 页" id="HO9cc5KFiMedb0tIhThy">
    <mxGraphModel>
      <root>
        <mxCell id="0" />
        <mxCell id="1" parent="0" />
      </root>
    </mxGraphModel>
  </diagram>
</mxfile>
